<?xml version="1.0" standalone="no"?>
<!DOCTYPE svg PUBLIC "-//W3C//DTD SVG 20010904//EN"
 "http://www.w3.org/TR/2001/REC-SVG-20010904/DTD/svg10.dtd">
<svg version="1.0" xmlns="http://www.w3.org/2000/svg"
 width="512.000000pt" height="512.000000pt" viewBox="0 0 512.000000 512.000000"
 preserveAspectRatio="xMidYMid meet">
<metadata>
Created by potrace 1.14, written by Peter Selinger 2001-2017
</metadata>
<g transform="translate(0.000000,512.000000) scale(0.100000,-0.100000)"
fill="#000000" stroke="none">
<path d="M1899 5116 c-2 -2 -40 -6 -83 -10 -44 -4 -82 -8 -85 -10 -3 -2 -31
-7 -61 -10 -193 -23 -512 -139 -720 -262 -246 -145 -483 -379 -642 -636 -54
-87 -135 -251 -163 -328 -44 -123 -68 -205 -90 -305 -22 -102 -27 -133 -41
-233 -9 -66 -12 -435 -3 -497 4 -33 10 -85 13 -115 6 -60 6 -60 35 -199 105
-506 362 -1006 732 -1427 42 -48 230 -236 284 -285 164 -148 402 -316 610
-432 252 -140 644 -285 850 -313 22 -3 56 -9 75 -14 19 -5 58 -11 85 -15 28
-3 66 -8 85 -11 19 -3 121 -6 225 -8 173 -3 241 1 375 19 92 12 106 15 167 29
34 9 75 18 90 21 15 2 82 23 148 46 635 218 1099 725 1265 1382 34 136 40 169
59 342 8 70 7 452 -2 490 -2 11 -8 47 -12 80 -31 260 -135 601 -266 870 -170
349 -365 621 -644 900 -144 144 -149 148 -377 330 -35 29 -198 135 -293 192
-293 175 -662 314 -981 369 -16 3 -36 7 -44 9 -8 2 -42 7 -75 11 -33 3 -69 8
-80 11 -24 5 -431 14 -436 9z"/>
</g>
</svg>
